<svg xmlns="http://www.w3.org/2000/svg" viewBox="0 -0.5 29 29" shape-rendering="crispEdges">
<metadata>Made with Pixels to Svg https://codepen.io/shshaw/pen/XbxvNj</metadata>
<path stroke="#222222" d="M0 0h7M8 0h5M14 0h2M17 0h2M20 0h1M22 0h7M0 1h1M6 1h1M8 1h1M11 1h1M13 1h2M17 1h1M19 1h1M22 1h1M28 1h1M0 2h1M2 2h3M6 2h1M8 2h1M11 2h1M15 2h6M22 2h1M24 2h3M28 2h1M0 3h1M2 3h3M6 3h1M11 3h4M19 3h2M22 3h1M24 3h3M28 3h1M0 4h1M2 4h3M6 4h1M9 4h1M11 4h4M16 4h1M18 4h1M22 4h1M24 4h3M28 4h1M0 5h1M6 5h1M8 5h1M10 5h2M16 5h1M18 5h1M20 5h1M22 5h1M28 5h1M0 6h7M8 6h1M10 6h1M12 6h1M14 6h1M16 6h1M18 6h1M20 6h1M22 6h7M8 7h4M2 8h3M6 8h1M8 8h2M12 8h1M16 8h1M18 8h1M20 8h4M26 8h3M2 9h1M5 9h1M7 9h1M10 9h1M13 9h3M17 9h1M24 9h1M27 9h2M0 10h2M6 10h1M8 10h1M10 10h1M15 10h3M20 10h2M23 10h3M0 11h2M3 11h1M7 11h1M22 11h1M24 11h1M27 11h2M2 12h2M6 12h1M9 12h1M11 12h3M15 12h3M25 12h1M27 12h2M0 13h3M4 13h2M9 13h1M13 13h1M15 13h1M20 13h6M27 13h1M0 14h1M2 14h2M6 14h4M11 14h1M13 14h1M15 14h1M17 14h1M19 14h1M22 14h1M25 14h2M28 14h1M0 15h1M4 15h2M9 15h1M11 15h3M15 15h3M19 15h5M25 15h1M27 15h2M0 16h3M5 16h3M19 16h1M22 16h1M24 16h1M26 16h1M28 16h1M0 17h1M2 17h1M4 17h2M7 17h2M20 17h2M23 17h1M25 17h4M0 18h1M3 18h4M11 18h1M14 18h1M16 18h1M18 18h2M22 18h1M26 18h1M0 19h1M4 19h2M8 19h2M11 19h1M16 19h2M19 19h2M22 19h2M25 19h3M0 20h1M3 20h4M10 20h4M19 20h6M27 20h2M8 21h2M11 21h3M15 21h1M17 21h1M20 21h1M24 21h1M0 22h7M9 22h1M11 22h2M14 22h3M20 22h1M22 22h1M24 22h2M27 22h1M0 23h1M6 23h1M10 23h1M12 23h3M17 23h2M20 23h1M24 23h1M0 24h1M2 24h3M6 24h1M8 24h2M11 24h3M18 24h1M20 24h8M0 25h1M2 25h3M6 25h1M8 25h1M11 25h1M13 25h3M19 25h1M27 25h1M0 26h1M2 26h3M6 26h1M8 26h2M11 26h1M14 26h1M16 26h7M24 26h2M27 26h1M0 27h1M6 27h1M13 27h1M15 27h5M21 27h1M24 27h1M27 27h1M0 28h7M9 28h1M12 28h2M17 28h2M23 28h3" />
<path stroke="#ffffff" d="M7 0h1M13 0h1M16 0h1M19 0h1M21 0h1M1 1h5M7 1h1M9 1h2M12 1h1M15 1h2M18 1h1M20 1h2M23 1h5M1 2h1M5 2h1M7 2h1M9 2h2M12 2h3M21 2h1M23 2h1M27 2h1M1 3h1M5 3h1M7 3h1M9 3h2M15 3h4M21 3h1M23 3h1M27 3h1M1 4h1M5 4h1M7 4h2M10 4h1M15 4h1M17 4h1M19 4h3M23 4h1M27 4h1M1 5h5M7 5h1M9 5h1M12 5h2M15 5h1M17 5h1M19 5h1M21 5h1M23 5h5M7 6h1M9 6h1M11 6h1M13 6h1M15 6h1M17 6h1M19 6h1M21 6h1M0 7h8M12 7h17M0 8h2M7 8h1M10 8h2M13 8h3M17 8h1M24 8h2M0 9h2M3 9h2M6 9h1M8 9h2M11 9h1M16 9h1M18 9h6M25 9h1M2 10h4M7 10h1M9 10h1M11 10h4M18 10h1M22 10h1M26 10h3M2 11h1M5 11h2M8 11h12M21 11h1M23 11h1M25 11h2M0 12h2M4 12h2M7 12h2M10 12h1M14 12h1M18 12h7M26 12h1M3 13h1M7 13h2M10 13h3M14 13h1M16 13h4M26 13h1M28 13h1M1 14h1M4 14h2M10 14h1M12 14h1M14 14h1M16 14h1M18 14h1M20 14h1M24 14h1M27 14h1M1 15h3M6 15h3M10 15h1M14 15h1M18 15h1M26 15h1M3 16h2M8 16h5M14 16h5M20 16h1M27 16h1M1 17h1M3 17h1M9 17h11M1 18h2M7 18h4M12 18h2M20 18h1M23 18h3M27 18h2M1 19h3M6 19h2M10 19h1M13 19h3M21 19h1M1 20h2M7 20h2M14 20h3M18 20h1M26 20h1M0 21h8M18 21h2M21 21h3M25 21h4M7 22h2M10 22h1M18 22h2M23 22h1M26 22h1M28 22h1M1 23h5M7 23h1M9 23h1M11 23h1M15 23h2M19 23h1M21 23h3M25 23h4M5 24h1M7 24h1M10 24h1M14 24h4M19 24h1M28 24h1M1 25h1M5 25h1M7 25h1M9 25h2M12 25h1M16 25h2M20 25h7M28 25h1M1 26h1M5 26h1M7 26h1M10 26h1M12 26h2M23 26h1M26 26h1M28 26h1M1 27h5M7 27h6M20 27h1M22 27h2M25 27h2M28 27h1M7 28h2M10 28h2M14 28h3M19 28h4M26 28h1M28 28h1" />
</svg>